{
  "accessors": [
    {
      "bufferView": 0,
      "componentType": 5126,
      "count": 10000,
      "max": [
        -9.423088073730469,
        -278.83935546875,
        -2.2709999084472656
      ],
      "min": [
        -1131.4161376953125,
        -858.0523681640625,
        -1133.56103515625
      ],
      "type": "VEC3"
    },
    {
      "bufferView": 0,
      "byteOffset": 120000,
      "componentType": 5126,
      "count": 10000,
      "max": [
        -27.195087432861328,
        -285.0723571777344,
        -22.535999298095703
      ],
      "min": [
        -1116.1251220703125,
        -853.6653442382813,
        -1074.345947265625
      ],
      "type": "VEC3"
    },
    {
      "bufferView": 0,
      "byteOffset": 240000,
      "componentType": 5126,
      "count": 10000,
      "max": [
        -16.503087997436523,
        -288.47137451171875,
        -13.387999534606934
      ],
      "min": [
        -1128.6630859375,
        -850.1583862304688,
        -1127.8370361328125
      ],
      "type": "VEC3"
    },
    {
      "bufferView": 0,
      "byteOffset": 360000,
      "componentType": 5126,
      "count": 10000,
      "max": [
        -5.761087894439697,
        -273.7053527832031,
        -34.465999603271484
      ],
      "min": [
        -1115.2451171875,
        -828.0243530273438,
        -1131.52294921875
      ],
      "type": "VEC3"
    },
    {
      "bufferView": 0,
      "byteOffset": 480000,
      "componentType": 5126,
      "count": 10000,
      "max": [
        -38.20208740234375,
        -290.71136474609375,
        -34.55799865722656
      ],
      "min": [
        -1126.99609375,
        -845.3563842773438,
        -1134.14501953125
      ],
      "type": "VEC3"
    },
    {
      "bufferView": 0,
      "byteOffset": 600000,
      "componentType": 5126,
      "count": 10000,
      "max": [
        -9.718088150024414,
        -290.9383544921875,
        -77.96199798583984
      ],
      "min": [
        -1125.4290771484375,
        -863.453369140625,
        -1126.6109619140625
      ],
      "type": "VEC3"
    },
    {
      "bufferView": 0,
      "byteOffset": 720000,
      "componentType": 5126,
      "count": 10000,
      "max": [
        -6.11408805847168,
        -283.7293701171875,
        -25.466999053955078
      ],
      "min": [
        -1123.72314453125,
        -860.3413696289063,
        -1134.385986328125
      ],
      "type": "VEC3"
    },
    {
      "bufferView": 0,
      "byteOffset": 840000,
      "componentType": 5126,
      "count": 10000,
      "max": [
        -31.778087615966797,
        -289.72735595703125,
        -63.51300048828125
      ],
      "min": [
        -1131.3231201171875,
        -864.1663818359375,
        -1093.1910400390625
      ],
      "type": "VEC3"
    },
    {
      "bufferView": 0,
      "byteOffset": 960000,
      "componentType": 5126,
      "count": 10000,
      "max": [
        -17.992088317871094,
        -289.0693664550781,
        -4.492000102996826
      ],
      "min": [
        -1120.2701416015625,
        -858.850341796875,
        -1127.93994140625
      ],
      "type": "VEC3"
    },
    {
      "bufferView": 0,
      "byteOffset": 1080000,
      "componentType": 5126,
      "count": 10000,
      "max": [
        -1.7030879259109497,
        -284.5693664550781,
        -10.366000175476074
      ],
      "min": [
        -1129.3970947265625,
        -862.8213500976563,
        -1110.3079833984375
      ],
      "type": "VEC3"
    },
    {
      "bufferView": 0,
      "byteOffset": 1200000,
      "componentType": 5126,
      "count": 10000,
      "max": [
        -20.206087112426758,
        -287.75238037109375,
        -2.809000015258789
      ],
      "min": [
        -1129.01904296875,
        -862.744384765625,
        -1107.2159423828125
      ],
      "type": "VEC3"
    },
    {
      "bufferView": 0,
      "byteOffset": 1320000,
      "componentType": 5126,
      "count": 10000,
      "max": [
        -32.14108657836914,
        -286.62738037109375,
        -34.305999755859375
      ],
      "min": [
        -1134.363037109375,
        -851.494384765625,
        -1132.18701171875
      ],
      "type": "VEC3"
    },
    {
      "bufferView": 0,
      "byteOffset": 1440000,
      "componentType": 5126,
      "count": 10000,
      "max": [
        -31.063087463378906,
        -287.8923645019531,
        -23.64699935913086
      ],
      "min": [
        -1130.5350341796875,
        -860.6173706054688,
        -1129.8289794921875
      ],
      "type": "VEC3"
    },
    {
      "bufferView": 0,
      "byteOffset": 1560000,
      "componentType": 5126,
      "count": 10000,
      "max": [
        -16.931087493896484,
        -287.9583740234375,
        -62.99800109863281
      ],
      "min": [
        -1108.089111328125,
        -862.9903564453125,
        -1087.821044921875
      ],
      "type": "VEC3"
    },
    {
      "bufferView": 0,
      "byteOffset": 1680000,
      "componentType": 5126,
      "count": 10000,
      "max": [
        -5.08408784866333,
        -288.4593811035156,
        -67.5780029296875
      ],
      "min": [
        -1128.150146484375,
        -827.8453369140625,
        -1120.0849609375
      ],
      "type": "VEC3"
    },
    {
      "bufferView": 0,
      "byteOffset": 1800000,
      "componentType": 5126,
      "count": 10000,
      "max": [
        -13.923088073730469,
        -282.70635986328125,
        -9.553000450134277
      ],
      "min": [
        -1116.97314453125,
        -859.495361328125,
        -1116.6390380859375
      ],
      "type": "VEC3"
    },
    {
      "bufferView": 0,
      "byteOffset": 1920000,
      "componentType": 5126,
      "count": 10000,
      "max": [
        -0.4910878837108612,
        -287.59136962890625,
        -7.125
      ],
      "min": [
        -1130.2530517578125,
        -786.7783813476563,
        -1116.157958984375
      ],
      "type": "VEC3"
    },
    {
      "bufferView": 0,
      "byteOffset": 2040000,
      "componentType": 5126,
      "count": 10000,
      "max": [
        -32.60508728027344,
        -282.5593566894531,
        -7.7210001945495605
      ],
      "min": [
        -1100.2110595703125,
        -860.775390625,
        -1134.01904296875
      ],
      "type": "VEC3"
    },
    {
      "bufferView": 0,
      "byteOffset": 2160000,
      "componentType": 5126,
      "count": 10000,
      "max": [
        -11.468088150024414,
        -281.22137451171875,
        -22.868000030517578
      ],
      "min": [
        -1133.340087890625,
        -824.2293701171875,
        -1132.760009765625
      ],
      "type": "VEC3"
    },
    {
      "bufferView": 0,
      "byteOffset": 2280000,
      "componentType": 5126,
      "count": 10000,
      "max": [
        -22.052087783813477,
        -282.4023742675781,
        -44.8390007019043
      ],
      "min": [
        -1132.0740966796875,
        -861.4173583984375,
        -1131.8089599609375
      ],
      "type": "VEC3"
    },
    {
      "bufferView": 0,
      "byteOffset": 2400000,
      "componentType": 5126,
      "count": 10000,
      "max": [
        -8.73808765411377,
        -288.8083801269531,
        -11.086999893188477
      ],
      "min": [
        -1123.2821044921875,
        -859.494384765625,
        -1128.626953125
      ],
      "type": "VEC3"
    },
    {
      "bufferView": 0,
      "byteOffset": 2520000,
      "componentType": 5126,
      "count": 10000,
      "max": [
        -7.35208797454834,
        -288.5143737792969,
        -7.88100004196167
      ],
      "min": [
        -1120.113037109375,
        -857.5323486328125,
        -1122.9940185546875
      ],
      "type": "VEC3"
    },
    {
      "bufferView": 0,
      "byteOffset": 2640000,
      "componentType": 5126,
      "count": 10000,
      "max": [
        -10.71608829498291,
        -275.0273742675781,
        -9.644000053405762
      ],
      "min": [
        -1122.007080078125,
        -844.2333374023438,
        -1135.5760498046875
      ],
      "type": "VEC3"
    },
    {
      "bufferView": 0,
      "byteOffset": 2760000,
      "componentType": 5126,
      "count": 10000,
      "max": [
        -7.163087844848633,
        -275.5663757324219,
        -8.899999618530273
      ],
      "min": [
        -1110.3880615234375,
        -864.0673828125,
        -1125.7989501953125
      ],
      "type": "VEC3"
    },
    {
      "bufferView": 0,
      "byteOffset": 2880000,
      "componentType": 5126,
      "count": 10000,
      "max": [
        -8.061087608337402,
        -285.2313537597656,
        -4.755000114440918
      ],
      "min": [
        -1111.9130859375,
        -840.29833984375,
        -1127.4820556640625
      ],
      "type": "VEC3"
    },
    {
      "bufferView": 0,
      "byteOffset": 3000000,
      "componentType": 5126,
      "count": 10000,
      "max": [
        -0.9700878858566284,
        -288.609375,
        -48.01100158691406
      ],
      "min": [
        -1124.7310791015625,
        -817.9923706054688,
        -1128.1800537109375
      ],
      "type": "VEC3"
    },
    {
      "bufferView": 0,
      "byteOffset": 3120000,
      "componentType": 5126,
      "count": 10000,
      "max": [
        -21.9340877532959,
        -282.203369140625,
        -17.075000762939453
      ],
      "min": [
        -1116.1630859375,
        -851.953369140625,
        -1083.6650390625
      ],
      "type": "VEC3"
    },
    {
      "bufferView": 0,
      "byteOffset": 3240000,
      "componentType": 5126,
      "count": 10000,
      "max": [
        -9.58908748626709,
        -290.1253662109375,
        -13.685999870300293
      ],
      "min": [
        -1102.3990478515625,
        -861.682373046875,
        -1134.1109619140625
      ],
      "type": "VEC3"
    },
    {
      "bufferView": 0,
      "byteOffset": 3360000,
      "componentType": 5126,
      "count": 10000,
      "max": [
        -18.291088104248047,
        -285.6813659667969,
        -9.163000106811523
      ],
      "min": [
        -1122.2921142578125,
        -858.3423461914063,
        -1121.093017578125
      ],
      "type": "VEC3"
    },
    {
      "bufferView": 0,
      "byteOffset": 3480000,
      "componentType": 5126,
      "count": 10000,
      "max": [
        -7.4420881271362305,
        -279.1563720703125,
        -14.92199993133545
      ],
      "min": [
        -1132.8741455078125,
        -861.3153686523438,
        -1134.7979736328125
      ],
      "type": "VEC3"
    },
    {
      "bufferView": 0,
      "byteOffset": 3600000,
      "componentType": 5126,
      "count": 10000,
      "max": [
        -6.913087844848633,
        -275.14935302734375,
        -47.77000045776367
      ],
      "min": [
        -1128.8060302734375,
        -860.1153564453125,
        -1125.9820556640625
      ],
      "type": "VEC3"
    },
    {
      "bufferView": 0,
      "byteOffset": 3720000,
      "componentType": 5126,
      "count": 10000,
      "max": [
        -19.010087966918945,
        -287.4293518066406,
        -19.799999237060547
      ],
      "min": [
        -1132.89404296875,
        -836.6903686523438,
        -1133.092041015625
      ],
      "type": "VEC3"
    },
    {
      "bufferView": 0,
      "byteOffset": 3840000,
      "componentType": 5126,
      "count": 10000,
      "max": [
        -2.387087821960449,
        -271.4993591308594,
        -4.275000095367432
      ],
      "min": [
        -1132.85009765625,
        -860.932373046875,
        -1120.31396484375
      ],
      "type": "VEC3"
    },
    {
      "bufferView": 0,
      "byteOffset": 3960000,
      "componentType": 5126,
      "count": 10000,
      "max": [
        -8.877087593078613,
        -284.13336181640625,
        -62.941001892089844
      ],
      "min": [
        -1106.257080078125,
        -861.9283447265625,
        -1109.345947265625
      ],
      "type": "VEC3"
    },
    {
      "bufferView": 0,
      "byteOffset": 4080000,
      "componentType": 5126,
      "count": 10000,
      "max": [
        -0.08108788728713989,
        -287.9163818359375,
        -10.628999710083008
      ],
      "min": [
        -1107.090087890625,
        -856.6903686523438,
        -1133.33203125
      ],
      "type": "VEC3"
    },
    {
      "bufferView": 0,
      "byteOffset": 4200000,
      "componentType": 5126,
      "count": 10000,
      "max": [
        -5.450088024139404,
        -284.82635498046875,
        -68.09300231933594
      ],
      "min": [
        -1109.5030517578125,
        -864.3683471679688,
        -1125.5009765625
      ],
      "type": "VEC3"
    },
    {
      "bufferView": 0,
      "byteOffset": 4320000,
      "componentType": 5126,
      "count": 10000,
      "max": [
        -15.20408821105957,
        -273.2043762207031,
        -9.071999549865723
      ],
      "min": [
        -1129.76904296875,
        -855.8153686523438,
        -1117.9439697265625
      ],
      "type": "VEC3"
    },
    {
      "bufferView": 0,
      "byteOffset": 4440000,
      "componentType": 5126,
      "count": 10000,
      "max": [
        -3.8750879764556885,
        -290.2203674316406,
        -1.9730000495910645
      ],
      "min": [
        -1133.0240478515625,
        -860.1423950195313,
        -1120.0279541015625
      ],
      "type": "VEC3"
    },
    {
      "bufferView": 0,
      "byteOffset": 4560000,
      "componentType": 5126,
      "count": 10000,
      "max": [
        -7.774087905883789,
        -287.0733642578125,
        -8.029999732971191
      ],
      "min": [
        -1120.39404296875,
        -849.5843505859375,
        -1129.7259521484375
      ],
      "type": "VEC3"
    },
    {
      "bufferView": 0,
      "byteOffset": 4680000,
      "componentType": 5126,
      "count": 10000,
      "max": [
        -24.729087829589844,
        -291.0833740234375,
        -13.605999946594238
      ],
      "min": [
        -1130.340087890625,
        -863.121337890625,
        -1129.427978515625
      ],
      "type": "VEC3"
    },
    {
      "bufferView": 0,
      "byteOffset": 4800000,
      "componentType": 5126,
      "count": 10000,
      "max": [
        -1.3950878381729126,
        -270.52838134765625,
        -35.027000427246094
      ],
      "min": [
        -1105.5321044921875,
        -855.537353515625,
        -1135.0379638671875
      ],
      "type": "VEC3"
    },
    {
      "bufferView": 0,
      "byteOffset": 4920000,
      "componentType": 5126,
      "count": 10000,
      "max": [
        -5.06008768081665,
        -269.8243713378906,
        -8.144000053405762
      ],
      "min": [
        -1134.4180908203125,
        -859.683349609375,
        -1133.1719970703125
      ],
      "type": "VEC3"
    },
    {
      "bufferView": 0,
      "byteOffset": 5040000,
      "componentType": 5126,
      "count": 10000,
      "max": [
        -8.147088050842285,
        -289.391357421875,
        -16.055999755859375
      ],
      "min": [
        -1112.47509765625,
        -853.3133544921875,
        -1121.18505859375
      ],
      "type": "VEC3"
    },
    {
      "bufferView": 0,
      "byteOffset": 5160000,
      "componentType": 5126,
      "count": 10000,
      "max": [
        -20.030088424682617,
        -284.29437255859375,
        -17.257999420166016
      ],
      "min": [
        -1129.9500732421875,
        -860.0263671875,
        -1030.781005859375
      ],
      "type": "VEC3"
    },
    {
      "bufferView": 0,
      "byteOffset": 5280000,
      "componentType": 5126,
      "count": 10000,
      "max": [
        -16.196088790893555,
        -277.0593566894531,
        -9.105999946594238
      ],
      "min": [
        -1132.35107421875,
        -836.8013916015625,
        -1116.0899658203125
      ],
      "type": "VEC3"
    },
    {
      "bufferView": 0,
      "byteOffset": 5400000,
      "componentType": 5126,
      "count": 10000,
      "max": [
        -16.361087799072266,
        -284.4813537597656,
        -5.441999912261963
      ],
      "min": [
        -1126.8221435546875,
        -857.8203735351563,
        -1127.0009765625
      ],
      "type": "VEC3"
    },
    {
      "bufferView": 0,
      "byteOffset": 5520000,
      "componentType": 5126,
      "count": 10000,
      "max": [
        -0.1250878870487213,
        -288.4463806152344,
        -37.2140007019043
      ],
      "min": [
        -1133.5721435546875,
        -859.9243774414063,
        -1129.198974609375
      ],
      "type": "VEC3"
    },
    {
      "bufferView": 0,
      "byteOffset": 5640000,
      "componentType": 5126,
      "count": 10000,
      "max": [
        -23.538087844848633,
        -290.6293640136719,
        -14.258000373840332
      ],
      "min": [
        -1127.2601318359375,
        -853.682373046875,
        -1093.0770263671875
      ],
      "type": "VEC3"
    },
    {
      "bufferView": 0,
      "byteOffset": 5760000,
      "componentType": 5126,
      "count": 10000,
      "max": [
        -15.13808822631836,
        -285.96136474609375,
        -2.4539999961853027
      ],
      "min": [
        -1129.610107421875,
        -858.4423828125,
        -1103.06005859375
      ],
      "type": "VEC3"
    },
    {
      "bufferView": 0,
      "byteOffset": 5880000,
      "componentType": 5126,
      "count": 10000,
      "max": [
        -32.94208908081055,
        -287.8083801269531,
        -25.55900001525879
      ],
      "min": [
        -1113.592041015625,
        -858.850341796875,
        -1121.573974609375
      ],
      "type": "VEC3"
    },
    {
      "bufferView": 0,
      "byteOffset": 6000000,
      "componentType": 5126,
      "count": 10000,
      "max": [
        -32.29608917236328,
        -286.55535888671875,
        -4.033999919891357
      ],
      "min": [
        -1096.7401123046875,
        -835.818359375,
        -1115.677001953125
      ],
      "type": "VEC3"
    },
    {
      "bufferView": 0,
      "byteOffset": 6120000,
      "componentType": 5126,
      "count": 10000,
      "max": [
        -23.846088409423828,
        -270.31036376953125,
        -19.719999313354492
      ],
      "min": [
        -1124.3291015625,
        -859.2993774414063,
        -1119.8790283203125
      ],
      "type": "VEC3"
    },
    {
      "bufferView": 0,
      "byteOffset": 6240000,
      "componentType": 5126,
      "count": 10000,
      "max": [
        -19.354087829589844,
        -288.71337890625,
        -45.99599838256836
      ],
      "min": [
        -1128.47509765625,
        -861.0413818359375,
        -1131.237060546875
      ],
      "type": "VEC3"
    },
    {
      "bufferView": 0,
      "byteOffset": 6360000,
      "componentType": 5126,
      "count": 10000,
      "max": [
        -11.288087844848633,
        -290.7463684082031,
        -29.635000228881836
      ],
      "min": [
        -1106.5340576171875,
        -851.7373657226563,
        -1119.031982421875
      ],
      "type": "VEC3"
    },
    {
      "bufferView": 0,
      "byteOffset": 6480000,
      "componentType": 5126,
      "count": 10000,
      "max": [
        -0.11108788847923279,
        -291.2283630371094,
        -16.812000274658203
      ],
      "min": [
        -1132.49609375,
        -864.328369140625,
        -1132.1529541015625
      ],
      "type": "VEC3"
    },
    {
      "bufferView": 0,
      "byteOffset": 6600000,
      "componentType": 5126,
      "count": 10000,
      "max": [
        -11.958087921142578,
        -290.099365234375,
        -10.217000007629395
      ],
      "min": [
        -1133.3680419921875,
        -842.1633911132813,
        -1133.8360595703125
      ],
      "type": "VEC3"
    },
    {
      "bufferView": 0,
      "byteOffset": 6720000,
      "componentType": 5126,
      "count": 10000,
      "max": [
        -0.4680878818035126,
        -288.92437744140625,
        -10.182000160217285
      ],
      "min": [
        -1128.154052734375,
        -859.3113403320313,
        -1132.9659423828125
      ],
      "type": "VEC3"
    },
    {
      "bufferView": 0,
      "byteOffset": 6840000,
      "componentType": 5126,
      "count": 10000,
      "max": [
        -28.32208824157715,
        -282.6253662109375,
        -40.672000885009766
      ],
      "min": [
        -1119.527099609375,
        -863.2813720703125,
        -1126.291015625
      ],
      "type": "VEC3"
    },
    {
      "bufferView": 0,
      "byteOffset": 6960000,
      "componentType": 5126,
      "count": 10000,
      "max": [
        -10.140088081359863,
        -289.08636474609375,
        -8.418999671936035
      ],
      "min": [
        -1120.0841064453125,
        -860.54833984375,
        -1111.510009765625
      ],
      "type": "VEC3"
    },
    {
      "bufferView": 0,
      "byteOffset": 7080000,
      "componentType": 5126,
      "count": 10000,
      "max": [
        -21.856088638305664,
        -279.3133544921875,
        -63.685001373291016
      ],
      "min": [
        -1117.6590576171875,
        -853.056396484375,
        -1133.698974609375
      ],
      "type": "VEC3"
    },
    {
      "bufferView": 0,
      "byteOffset": 7200000,
      "componentType": 5126,
      "count": 10000,
      "max": [
        -6.81008768081665,
        -289.8553771972656,
        -51.3650016784668
      ],
      "min": [
        -1118.2120361328125,
        -862.1853637695313,
        -1134.5799560546875
      ],
      "type": "VEC3"
    },
    {
      "bufferView": 0,
      "byteOffset": 7320000,
      "componentType": 5126,
      "count": 10000,
      "max": [
        -7.029088020324707,
        -290.02435302734375,
        -10.331000328063965
      ],
      "min": [
        -1130.174072265625,
        -863.4983520507813,
        -1130.7559814453125
      ],
      "type": "VEC3"
    },
    {
      "bufferView": 0,
      "byteOffset": 7440000,
      "componentType": 5126,
      "count": 10000,
      "max": [
        -21.256088256835938,
        -287.2103576660156,
        -2.0880000591278076
      ],
      "min": [
        -1132.047119140625,
        -864.2533569335938,
        -1129.85205078125
      ],
      "type": "VEC3"
    },
    {
      "bufferView": 0,
      "byteOffset": 7560000,
      "componentType": 5126,
      "count": 10000,
      "max": [
        -5.888087749481201,
        -283.50238037109375,
        -9.82699966430664
      ],
      "min": [
        -1125.4691162109375,
        -858.3583374023438,
        -1135.4849853515625
      ],
      "type": "VEC3"
    },
    {
      "bufferView": 0,
      "byteOffset": 7680000,
      "componentType": 5126,
      "count": 10000,
      "max": [
        -7.826087951660156,
        -284.5543518066406,
        -15.574999809265137
      ],
      "min": [
        -1108.256103515625,
        -855.6073608398438,
        -1133.68701171875
      ],
      "type": "VEC3"
    },
    {
      "bufferView": 0,
      "byteOffset": 7800000,
      "componentType": 5126,
      "count": 10000,
      "max": [
        -72.95408630371094,
        -277.3143615722656,
        -3.1070001125335693
      ],
      "min": [
        -1123.3431396484375,
        -860.2993774414063,
        -1134.489013671875
      ],
      "type": "VEC3"
    },
    {
      "bufferView": 0,
      "byteOffset": 7920000,
      "componentType": 5126,
      "count": 10000,
      "max": [
        -15.12608814239502,
        -286.3273620605469,
        -23.61199951171875
      ],
      "min": [
        -1075.7220458984375,
        -862.2763671875,
        -1104.5489501953125
      ],
      "type": "VEC3"
    },
    {
      "bufferView": 0,
      "byteOffset": 8040000,
      "componentType": 5126,
      "count": 10000,
      "max": [
        -8.05408763885498,
        -288.86737060546875,
        -4.366000175476074
      ],
      "min": [
        -1128.1251220703125,
        -810.5193481445313,
        -1087.2259521484375
      ],
      "type": "VEC3"
    },
    {
      "bufferView": 0,
      "byteOffset": 8160000,
      "componentType": 5126,
      "count": 10000,
      "max": [
        -8.380087852478027,
        -289.609375,
        -20.577999114990234
      ],
      "min": [
        -1123.43603515625,
        -862.661376953125,
        -1129.64599609375
      ],
      "type": "VEC3"
    },
    {
      "bufferView": 0,
      "byteOffset": 8280000,
      "componentType": 5126,
      "count": 10000,
      "max": [
        -0.8820878863334656,
        -283.37738037109375,
        -10.697999954223633
      ],
      "min": [
        -1097.403076171875,
        -857.8763427734375,
        -1111.4530029296875
      ],
      "type": "VEC3"
    },
    {
      "bufferView": 0,
      "byteOffset": 8400000,
      "componentType": 5126,
      "count": 10000,
      "max": [
        -3.960087776184082,
        -286.23236083984375,
        -30.860000610351563
      ],
      "min": [
        -1132.3140869140625,
        -859.4823608398438,
        -1085.4969482421875
      ],
      "type": "VEC3"
    },
    {
      "bufferView": 0,
      "byteOffset": 8520000,
      "componentType": 5126,
      "count": 10000,
      "max": [
        -25.988088607788086,
        -290.68035888671875,
        -12.883999824523926
      ],
      "min": [
        -1119.39013671875,
        -860.17236328125,
        -1128.053955078125
      ],
      "type": "VEC3"
    },
    {
      "bufferView": 0,
      "byteOffset": 8640000,
      "componentType": 5126,
      "count": 10000,
      "max": [
        -33.063087463378906,
        -287.66937255859375,
        -21.597000122070313
      ],
      "min": [
        -1118.328125,
        -856.9063720703125,
        -1134.5570068359375
      ],
      "type": "VEC3"
    },
    {
      "bufferView": 0,
      "byteOffset": 8760000,
      "componentType": 5126,
      "count": 10000,
      "max": [
        -20.438087463378906,
        -289.9483642578125,
        -17.68199920654297
      ],
      "min": [
        -1062.6241455078125,
        -861.911376953125,
        -1119.2149658203125
      ],
      "type": "VEC3"
    },
    {
      "bufferView": 0,
      "byteOffset": 8880000,
      "componentType": 5126,
      "count": 10000,
      "max": [
        -11.361087799072266,
        -288.2463684082031,
        -23.55500030517578
      ],
      "min": [
        -1084.256103515625,
        -833.1593627929688,
        -1127.240966796875
      ],
      "type": "VEC3"
    },
    {
      "bufferView": 0,
      "byteOffset": 9000000,
      "componentType": 5126,
      "count": 10000,
      "max": [
        -15.63708782196045,
        -286.91436767578125,
        -37.28300094604492
      ],
      "min": [
        -1092.2530517578125,
        -853.08935546875,
        -1131.6839599609375
      ],
      "type": "VEC3"
    },
    {
      "bufferView": 0,
      "byteOffset": 9120000,
      "componentType": 5126,
      "count": 10000,
      "max": [
        -28.264087677001953,
        -272.0333557128906,
        -46.236000061035156
      ],
      "min": [
        -1128.4090576171875,
        -848.9133911132813,
        -1127.9849853515625
      ],
      "type": "VEC3"
    },
    {
      "bufferView": 0,
      "byteOffset": 9240000,
      "componentType": 5126,
      "count": 10000,
      "max": [
        -39.203086853027344,
        -288.0263671875,
        -5.03000020980835
      ],
      "min": [
        -1115.3350830078125,
        -829.2893676757813,
        -1131.9580078125
      ],
      "type": "VEC3"
    },
    {
      "bufferView": 0,
      "byteOffset": 9360000,
      "componentType": 5126,
      "count": 10000,
      "max": [
        0.4969121217727661,
        -290.7333679199219,
        -83.59500122070313
      ],
      "min": [
        -1131.3031005859375,
        -860.6683959960938,
        -1113.81103515625
      ],
      "type": "VEC3"
    },
    {
      "bufferView": 0,
      "byteOffset": 9480000,
      "componentType": 5126,
      "count": 10000,
      "max": [
        -4.731087684631348,
        -274.6443786621094,
        -29.038999557495117
      ],
      "min": [
        -1122.7940673828125,
        -864.3033447265625,
        -1127.791015625
      ],
      "type": "VEC3"
    },
    {
      "bufferView": 0,
      "byteOffset": 9600000,
      "componentType": 5126,
      "count": 10000,
      "max": [
        -24.462087631225586,
        -289.5143737792969,
        -10.663000106811523
      ],
      "min": [
        -1114.0660400390625,
        -864.2623901367188,
        -1104.6400146484375
      ],
      "type": "VEC3"
    },
    {
      "bufferView": 0,
      "byteOffset": 9720000,
      "componentType": 5126,
      "count": 10000,
      "max": [
        -1.7850879430770874,
        -289.53436279296875,
        -13.571000099182129
      ],
      "min": [
        -1115.9161376953125,
        -853.3653564453125,
        -1080.1500244140625
      ],
      "type": "VEC3"
    },
    {
      "bufferView": 0,
      "byteOffset": 9840000,
      "componentType": 5126,
      "count": 10000,
      "max": [
        -8.416088104248047,
        -279.474365234375,
        -34.85599899291992
      ],
      "min": [
        -1115.421142578125,
        -860.2353515625,
        -1134.6829833984375
      ],
      "type": "VEC3"
    },
    {
      "bufferView": 0,
      "byteOffset": 9960000,
      "componentType": 5126,
      "count": 10000,
      "max": [
        -15.219087600708008,
        -289.7803649902344,
        -29.875
      ],
      "min": [
        -1075.93408203125,
        -862.537353515625,
        -1122.7530517578125
      ],
      "type": "VEC3"
    },
    {
      "bufferView": 0,
      "byteOffset": 10080000,
      "componentType": 5126,
      "count": 10000,
      "max": [
        -9.044088363647461,
        -287.2753601074219,
        -34.54600143432617
      ],
      "min": [
        -1127.078125,
        -852.2303466796875,
        -1120.7950439453125
      ],
      "type": "VEC3"
    },
    {
      "bufferView": 0,
      "byteOffset": 10200000,
      "componentType": 5126,
      "count": 10000,
      "max": [
        -4.587088108062744,
        -278.45037841796875,
        -22.23900032043457
      ],
      "min": [
        -1097.775146484375,
        -859.7273559570313,
        -1129.1650390625
      ],
      "type": "VEC3"
    },
    {
      "bufferView": 0,
      "byteOffset": 10320000,
      "componentType": 5126,
      "count": 10000,
      "max": [
        -2.530087947845459,
        -288.0693664550781,
        -42.790000915527344
      ],
      "min": [
        -1127.0350341796875,
        -834.3973388671875,
        -1129.4620361328125
      ],
      "type": "VEC3"
    },
    {
      "bufferView": 0,
      "byteOffset": 10440000,
      "componentType": 5126,
      "count": 10000,
      "max": [
        -1.684087872505188,
        -269.4083557128906,
        -11.166999816894531
      ],
      "min": [
        -1128.3350830078125,
        -853.1593627929688,
        -1131.7060546875
      ],
      "type": "VEC3"
    },
    {
      "bufferView": 0,
      "byteOffset": 10560000,
      "componentType": 5126,
      "count": 10000,
      "max": [
        -18.230087280273438,
        -287.71337890625,
        -15.369000434875488
      ],
      "min": [
        -1131.0421142578125,
        -864.0083618164063,
        -1105.06396484375
      ],
      "type": "VEC3"
    },
    {
      "bufferView": 0,
      "byteOffset": 10680000,
      "componentType": 5126,
      "count": 10000,
      "max": [
        -20.959087371826172,
        -280.3793640136719,
        -68.05799865722656
      ],
      "min": [
        -1134.01708984375,
        -859.7093505859375,
        -1135.3470458984375
      ],
      "type": "VEC3"
    },
    {
      "bufferView": 0,
      "byteOffset": 10800000,
      "componentType": 5126,
      "count": 10000,
      "max": [
        -26.916088104248047,
        -273.7053527832031,
        -62.12799835205078
      ],
      "min": [
        -1108.9390869140625,
        -840.6963500976563,
        -1134.968994140625
      ],
      "type": "VEC3"
    },
    {
      "bufferView": 0,
      "byteOffset": 10920000,
      "componentType": 5126,
      "count": 10000,
      "max": [
        -3.60208797454834,
        -286.5013732910156,
        -40.992000579833984
      ],
      "min": [
        -1077.6640625,
        -858.6103515625,
        -1116.386962890625
      ],
      "type": "VEC3"
    },
    {
      "bufferView": 0,
      "byteOffset": 11040000,
      "componentType": 5126,
      "count": 10000,
      "max": [
        -22.75708770751953,
        -289.193359375,
        -11.017999649047852
      ],
      "min": [
        -1082.5960693359375,
        -844.46435546875,
        -1126.2220458984375
      ],
      "type": "VEC3"
    },
    {
      "bufferView": 0,
      "byteOffset": 11160000,
      "componentType": 5126,
      "count": 10000,
      "max": [
        -0.6190878748893738,
        -278.9583740234375,
        -3.2330000400543213
      ],
      "min": [
        -1111.49609375,
        -859.8003540039063,
        -1134.3509521484375
      ],
      "type": "VEC3"
    },
    {
      "bufferView": 0,
      "byteOffset": 11280000,
      "componentType": 5126,
      "count": 10000,
      "max": [
        -13.723088264465332,
        -287.46435546875,
        -5.122000217437744
      ],
      "min": [
        -1122.2100830078125,
        -840.04638671875,
        -1129.875
      ],
      "type": "VEC3"
    },
    {
      "bufferView": 0,
      "byteOffset": 11400000,
      "componentType": 5126,
      "count": 10000,
      "max": [
        -77.70208740234375,
        -289.0253601074219,
        -22.386999130249023
      ],
      "min": [
        -1117.76513671875,
        -858.9443969726563,
        -1118.5279541015625
      ],
      "type": "VEC3"
    },
    {
      "bufferView": 0,
      "byteOffset": 11520000,
      "componentType": 5126,
      "count": 10000,
      "max": [
        -20.942087173461914,
        -289.05035400390625,
        -6.289999961853027
      ],
      "min": [
        -1127.3271484375,
        -854.8723754882813,
        -1113.4329833984375
      ],
      "type": "VEC3"
    },
    {
      "bufferView": 0,
      "byteOffset": 11640000,
      "componentType": 5126,
      "count": 10000,
      "max": [
        -14.524087905883789,
        -288.6973571777344,
        -4.9730000495910645
      ],
      "min": [
        -1101.5201416015625,
        -854.42236328125,
        -1119.5469970703125
      ],
      "type": "VEC3"
    },
    {
      "bufferView": 0,
      "byteOffset": 11760000,
      "componentType": 5126,
      "count": 10000,
      "max": [
        -17.11908721923828,
        -287.7763671875,
        -26.166000366210938
      ],
      "min": [
        -1125.01806640625,
        -857.1263427734375,
        -1125.81005859375
      ],
      "type": "VEC3"
    },
    {
      "bufferView": 0,
      "byteOffset": 11880000,
      "componentType": 5126,
      "count": 10000,
      "max": [
        -16.300086975097656,
        -287.9883728027344,
        -20.44099998474121
      ],
      "min": [
        -1083.4281005859375,
        -835.0173950195313,
        -1129.095947265625
      ],
      "type": "VEC3"
    },
    {
      "bufferView": 0,
      "byteOffset": 12000000,
      "componentType": 5126,
      "count": 10000,
      "max": [
        -6.174088001251221,
        -273.65936279296875,
        -25.775999069213867
      ],
      "min": [
        -1114.715087890625,
        -862.4833374023438,
        -1123.864013671875
      ],
      "type": "VEC3"
    },
    {
      "bufferView": 0,
      "byteOffset": 12120000,
      "componentType": 5126,
      "count": 10000,
      "max": [
        -33.91408920288086,
        -287.3763732910156,
        -5.683000087738037
      ],
      "min": [
        -1133.6470947265625,
        -859.234375,
        -1133.8699951171875
      ],
      "type": "VEC3"
    },
    {
      "bufferView": 0,
      "byteOffset": 12240000,
      "componentType": 5126,
      "count": 10000,
      "max": [
        -16.802087783813477,
        -284.92535400390625,
        -53.97600173950195
      ],
      "min": [
        -1133.14111328125,
        -848.598388671875,
        -1127.366943359375
      ],
      "type": "VEC3"
    },
    {
      "bufferView": 0,
      "byteOffset": 12360000,
      "componentType": 5126,
      "count": 10000,
      "max": [
        -26.715087890625,
        -284.3843688964844,
        -32.39400100708008
      ],
      "min": [
        -1119.7890625,
        -862.25537109375,
        -1131.47705078125
      ],
      "type": "VEC3"
    },
    {
      "bufferView": 0,
      "byteOffset": 12480000,
      "componentType": 5126,
      "count": 10000,
      "max": [
        -34.95908737182617,
        -289.2203674316406,
        -45.46900177001953
      ],
      "min": [
        -1115.132080078125,
        -853.9243774414063,
        -1121.7230224609375
      ],
      "type": "VEC3"
    },
    {
      "bufferView": 0,
      "byteOffset": 12600000,
      "componentType": 5126,
      "count": 10000,
      "max": [
        -4.325088024139404,
        -289.068359375,
        -1.343999981880188
      ],
      "min": [
        -1133.369140625,
        -853.7693481445313,
        -1127.4239501953125
      ],
      "type": "VEC3"
    },
    {
      "bufferView": 0,
      "byteOffset": 12720000,
      "componentType": 5126,
      "count": 10000,
      "max": [
        -10.76308822631836,
        -289.7193603515625,
        -16.743000030517578
      ],
      "min": [
        -1126.0771484375,
        -863.6183471679688,
        -1129.3480224609375
      ],
      "type": "VEC3"
    },
    {
      "bufferView": 0,
      "byteOffset": 12840000,
      "componentType": 5126,
      "count": 10000,
      "max": [
        -51.84708786010742,
        -289.69537353515625,
        -3.884999990463257
      ],
      "min": [
        -1116.51904296875,
        -860.9413452148438,
        -1135.405029296875
      ],
      "type": "VEC3"
    },
    {
      "bufferView": 0,
      "byteOffset": 12960000,
      "componentType": 5126,
      "count": 10000,
      "max": [
        -2.5660879611968994,
        -288.484375,
        -5.533999919891357
      ],
      "min": [
        -1023.2230834960938,
        -862.0833740234375,
        -1119.696044921875
      ],
      "type": "VEC3"
    },
    {
      "bufferView": 0,
      "byteOffset": 13080000,
      "componentType": 5126,
      "count": 10000,
      "max": [
        -24.841087341308594,
        -290.2963562011719,
        -22.777000427246094
      ],
      "min": [
        -1099.6910400390625,
        -861.4813842773438,
        -1122.5360107421875
      ],
      "type": "VEC3"
    },
    {
      "bufferView": 0,
      "byteOffset": 13200000,
      "componentType": 5126,
      "count": 10000,
      "max": [
        -21.1840877532959,
        -279.96435546875,
        -12.96500015258789
      ],
      "min": [
        -1089.0521240234375,
        -863.4263916015625,
        -1135.5989990234375
      ],
      "type": "VEC3"
    },
    {
      "bufferView": 0,
      "byteOffset": 13320000,
      "componentType": 5126,
      "count": 10000,
      "max": [
        -9.653087615966797,
        -278.5043640136719,
        -6.23199987411499
      ],
      "min": [
        -1103.6600341796875,
        -841.2903442382813,
        -1060.1259765625
      ],
      "type": "VEC3"
    },
    {
      "bufferView": 0,
      "byteOffset": 13440000,
      "componentType": 5126,
      "count": 10000,
      "max": [
        -12.588088035583496,
        -277.8173522949219,
        -75.44300079345703
      ],
      "min": [
        -1114.2900390625,
        -858.3053588867188,
        -1124.928955078125
      ],
      "type": "VEC3"
    },
    {
      "bufferView": 0,
      "byteOffset": 13560000,
      "componentType": 5126,
      "count": 10000,
      "max": [
        -20.63608741760254,
        -284.162353515625,
        -12.128999710083008
      ],
      "min": [
        -1112.1151123046875,
        -863.3243408203125,
        -1135.43896484375
      ],
      "type": "VEC3"
    },
    {
      "bufferView": 0,
      "byteOffset": 13680000,
      "componentType": 5126,
      "count": 10000,
      "max": [
        -26.723087310791016,
        -280.2623596191406,
        -25.615999221801758
      ],
      "min": [
        -1133.7950439453125,
        -859.8403930664063,
        -1130.595947265625
      ],
      "type": "VEC3"
    },
    {
      "bufferView": 0,
      "byteOffset": 13800000,
      "componentType": 5126,
      "count": 10000,
      "max": [
        -12.309087753295898,
        -272.4863586425781,
        -3.9539999961853027
      ],
      "min": [
        -1132.9111328125,
        -861.4063720703125,
        -1132.302001953125
      ],
      "type": "VEC3"
    },
    {
      "bufferView": 0,
      "byteOffset": 13920000,
      "componentType": 5126,
      "count": 10000,
      "max": [
        -50.05108642578125,
        -289.9003601074219,
        -10.904000282287598
      ],
      "min": [
        -1128.0340576171875,
        -846.1113891601563,
        -1129.4969482421875
      ],
      "type": "VEC3"
    },
    {
      "bufferView": 0,
      "byteOffset": 14040000,
      "componentType": 5126,
      "count": 10000,
      "max": [
        -5.09608793258667,
        -284.8163757324219,
        -17.979000091552734
      ],
      "min": [
        -1119.5740966796875,
        -862.516357421875,
        -1133.4580078125
      ],
      "type": "VEC3"
    },
    {
      "bufferView": 0,
      "byteOffset": 14160000,
      "componentType": 5126,
      "count": 10000,
      "max": [
        -1.4480879306793213,
        -284.911376953125,
        -9.015000343322754
      ],
      "min": [
        -1133.3680419921875,
        -863.7733764648438,
        -1131.1800537109375
      ],
      "type": "VEC3"
    },
    {
      "bufferView": 0,
      "byteOffset": 14280000,
      "componentType": 5126,
      "count": 10000,
      "max": [
        -6.4980878829956055,
        -286.1733703613281,
        -35.749000549316406
      ],
      "min": [
        -1127.2401123046875,
        -861.349365234375,
        -1135.427001953125
      ],
      "type": "VEC3"
    },
    {
      "bufferView": 0,
      "byteOffset": 14400000,
      "componentType": 5126,
      "count": 10000,
      "max": [
        -0.16408789157867432,
        -287.85137939453125,
        -11.442000389099121
      ],
      "min": [
        -1134.4180908203125,
        -863.1853637695313,
        -1126.737060546875
      ],
      "type": "VEC3"
    },
    {
      "bufferView": 0,
      "byteOffset": 14520000,
      "componentType": 5126,
      "count": 10000,
      "max": [
        -9.401087760925293,
        -290.71136474609375,
        -1.4579999446868896
      ],
      "min": [
        -1129.3031005859375,
        -836.6923828125,
        -1100.323974609375
      ],
      "type": "VEC3"
    },
    {
      "bufferView": 0,
      "byteOffset": 14640000,
      "componentType": 5126,
      "count": 10000,
      "max": [
        -3.597087860107422,
        -279.80035400390625,
        -7.869999885559082
      ],
      "min": [
        -1132.3240966796875,
        -858.2993774414063,
        -1124.883056640625
      ],
      "type": "VEC3"
    },
    {
      "bufferView": 0,
      "byteOffset": 14760000,
      "componentType": 5126,
      "count": 10000,
      "max": [
        -29.5590877532959,
        -277.15936279296875,
        -17.2810001373291
      ],
      "min": [
        -1115.6971435546875,
        -847.1663818359375,
        -1114.4410400390625
      ],
      "type": "VEC3"
    },
    {
      "bufferView": 0,
      "byteOffset": 14880000,
      "componentType": 5126,
      "count": 10000,
      "max": [
        0.5739120841026306,
        -278.2103576660156,
        -0.828000009059906
      ],
      "min": [
        -1134.5040283203125,
        -864.2083740234375,
        -1121.126953125
      ],
      "type": "VEC3"
    },
    {
      "bufferView": 0,
      "byteOffset": 15000000,
      "componentType": 5126,
      "count": 10000,
      "max": [
        -19.357088088989258,
        -284.25238037109375,
        -29.131000518798828
      ],
      "min": [
        -1104.0650634765625,
        -863.9203491210938,
        -1122.2950439453125
      ],
      "type": "VEC3"
    },
    {
      "bufferView": 0,
      "byteOffset": 15120000,
      "componentType": 5126,
      "count": 10000,
      "max": [
        -10.527088165283203,
        -288.1633605957031,
        -7.480000019073486
      ],
      "min": [
        -1133.0400390625,
        -864.0233764648438,
        -1088.3709716796875
      ],
      "type": "VEC3"
    },
    {
      "bufferView": 0,
      "byteOffset": 15240000,
      "componentType": 5126,
      "count": 10000,
      "max": [
        -0.5200878977775574,
        -288.32537841796875,
        -9.99899959564209
      ],
      "min": [
        -1129.26708984375,
        -858.5353393554688,
        -1011.718017578125
      ],
      "type": "VEC3"
    },
    {
      "bufferView": 0,
      "byteOffset": 15360000,
      "componentType": 5126,
      "count": 10000,
      "max": [
        -10.831088066101074,
        -275.9993591308594,
        -48.915000915527344
      ],
      "min": [
        -1116.152099609375,
        -861.2423706054688,
        -1135.072998046875
      ],
      "type": "VEC3"
    },
    {
      "bufferView": 0,
      "byteOffset": 15480000,
      "componentType": 5126,
      "count": 10000,
      "max": [
        -8.642087936401367,
        -277.65338134765625,
        -57.513999938964844
      ],
      "min": [
        -1116.9970703125,
        -847.5903930664063,
        -1134.0989990234375
      ],
      "type": "VEC3"
    },
    {
      "bufferView": 0,
      "byteOffset": 15600000,
      "componentType": 5126,
      "count": 10000,
      "max": [
        -2.34608793258667,
        -288.49237060546875,
        -9.128999710083008
      ],
      "min": [
        -1102.256103515625,
        -839.3923950195313,
        -1128.4429931640625
      ],
      "type": "VEC3"
    },
    {
      "bufferView": 0,
      "byteOffset": 15720000,
      "componentType": 5126,
      "count": 10000,
      "max": [
        -27.532087326049805,
        -289.3063659667969,
        -25.947999954223633
      ],
      "min": [
        -1060.3751220703125,
        -862.0353393554688,
        -1123.0849609375
      ],
      "type": "VEC3"
    },
    {
      "bufferView": 0,
      "byteOffset": 15840000,
      "componentType": 5126,
      "count": 10000,
      "max": [
        -45.93208694458008,
        -289.765380859375,
        -7.331999778747559
      ],
      "min": [
        -1059.3470458984375,
        -863.1843872070313,
        -1130.366943359375
      ],
      "type": "VEC3"
    },
    {
      "bufferView": 0,
      "byteOffset": 15960000,
      "componentType": 5126,
      "count": 10000,
      "max": [
        -16.32908821105957,
        -287.2503662109375,
        -5.202000141143799
      ],
      "min": [
        -1134.008056640625,
        -863.9663696289063,
        -1134.5
      ],
      "type": "VEC3"
    },
    {
      "bufferView": 0,
      "byteOffset": 16080000,
      "componentType": 5126,
      "count": 10000,
      "max": [
        -6.775087833404541,
        -289.51837158203125,
        -34.87900161743164
      ],
      "min": [
        -1128.484130859375,
        -851.224365234375,
        -1134.2939453125
      ],
      "type": "VEC3"
    },
    {
      "bufferView": 0,
      "byteOffset": 16200000,
      "componentType": 5126,
      "count": 10000,
      "max": [
        -35.02308654785156,
        -278.1373596191406,
        -15.99899959564209
      ],
      "min": [
        -1129.2730712890625,
        -849.0023803710938,
        -1117.7149658203125
      ],
      "type": "VEC3"
    },
    {
      "bufferView": 0,
      "byteOffset": 16320000,
      "componentType": 5126,
      "count": 10000,
      "max": [
        -4.201087951660156,
        -290.2623596191406,
        -24.150999069213867
      ],
      "min": [
        -1102.654052734375,
        -862.8403930664063,
        -1132.427978515625
      ],
      "type": "VEC3"
    },
    {
      "bufferView": 0,
      "byteOffset": 16440000,
      "componentType": 5126,
      "count": 10000,
      "max": [
        -18.23908805847168,
        -290.49237060546875,
        -20.886999130249023
      ],
      "min": [
        -1077.508056640625,
        -862.5733642578125,
        -1115.758056640625
      ],
      "type": "VEC3"
    },
    {
      "bufferView": 0,
      "byteOffset": 16560000,
      "componentType": 5126,
      "count": 10000,
      "max": [
        -4.766088008880615,
        -281.3483581542969,
        -14.052000045776367
      ],
      "min": [
        -1116.5430908203125,
        -859.4573364257813,
        -1132.072998046875
      ],
      "type": "VEC3"
    },
    {
      "bufferView": 0,
      "byteOffset": 16680000,
      "componentType": 5126,
      "count": 10000,
      "max": [
        -18.915088653564453,
        -288.96435546875,
        -11.555999755859375
      ],
      "min": [
        -1122.6910400390625,
        -851.3613891601563,
        -1135.634033203125
      ],
      "type": "VEC3"
    },
    {
      "bufferView": 0,
      "byteOffset": 16800000,
      "componentType": 5126,
      "count": 10000,
      "max": [
        -17.243087768554688,
        -278.2353515625,
        -28.593000411987305
      ],
      "min": [
        -1119.1380615234375,
        -843.0673828125,
        -1120.5550537109375
      ],
      "type": "VEC3"
    },
    {
      "bufferView": 0,
      "byteOffset": 16920000,
      "componentType": 5126,
      "count": 10000,
      "max": [
        -20.27608871459961,
        -287.0123596191406,
        -2.992000102996826
      ],
      "min": [
        -1130.6871337890625,
        -862.2763671875,
        -1090.969970703125
      ],
      "type": "VEC3"
    },
    {
      "bufferView": 0,
      "byteOffset": 17040000,
      "componentType": 5126,
      "count": 10000,
      "max": [
        -15.365087509155273,
        -283.77435302734375,
        -37.13399887084961
      ],
      "min": [
        -1128.113037109375,
        -860.9783935546875,
        -1135.56494140625
      ],
      "type": "VEC3"
    },
    {
      "bufferView": 0,
      "byteOffset": 17160000,
      "componentType": 5126,
      "count": 10000,
      "max": [
        -64.30908966064453,
        -288.0463562011719,
        -9.793000221252441
      ],
      "min": [
        -1120.14111328125,
        -860.75537109375,
        -1113.1240234375
      ],
      "type": "VEC3"
    },
    {
      "bufferView": 0,
      "byteOffset": 17280000,
      "componentType": 5126,
      "count": 10000,
      "max": [
        -6.356087684631348,
        -289.4343566894531,
        -17.761999130249023
      ],
      "min": [
        -1097.775146484375,
        -856.181396484375,
        -1135.4620361328125
      ],
      "type": "VEC3"
    },
    {
      "bufferView": 0,
      "byteOffset": 17400000,
      "componentType": 5126,
      "count": 10000,
      "max": [
        -1.7950879335403442,
        -286.6133728027344,
        -9.586999893188477
      ],
      "min": [
        -1132.4061279296875,
        -861.6953735351563,
        -1084.112060546875
      ],
      "type": "VEC3"
    },
    {
      "bufferView": 0,
      "byteOffset": 17520000,
      "componentType": 5126,
      "count": 10000,
      "max": [
        -3.4440879821777344,
        -284.9013671875,
        -30.65399932861328
      ],
      "min": [
        -1134.06005859375,
        -860.7783813476563,
        -1127.8819580078125
      ],
      "type": "VEC3"
    },
    {
      "bufferView": 0,
      "byteOffset": 17640000,
      "componentType": 5126,
      "count": 10000,
      "max": [
        -38.780086517333984,
        -288.0933532714844,
        -12.036999702453613
      ],
      "min": [
        -1130.632080078125,
        -863.42236328125,
        -1097.8170166015625
      ],
      "type": "VEC3"
    },
    {
      "bufferView": 0,
      "byteOffset": 17760000,
      "componentType": 5126,
      "count": 10000,
      "max": [
        -51.281089782714844,
        -287.5013732910156,
        -38.89699935913086
      ],
      "min": [
        -1095.22314453125,
        -856.7083740234375,
        -1126.531005859375
      ],
      "type": "VEC3"
    },
    {
      "bufferView": 0,
      "byteOffset": 17880000,
      "componentType": 5126,
      "count": 10000,
      "max": [
        -7.054088115692139,
        -289.8503723144531,
        -30.780000686645508
      ],
      "min": [
        -1124.0040283203125,
        -859.4153442382813,
        -1134.16796875
      ],
      "type": "VEC3"
    },
    {
      "bufferView": 0,
      "byteOffset": 18000000,
      "componentType": 5126,
      "count": 10000,
      "max": [
        -1.5070879459381104,
        -286.43035888671875,
        -21.128000259399414
      ],
      "min": [
        -1038.0340576171875,
        -853.6363525390625,
        -1129.9090576171875
      ],
      "type": "VEC3"
    },
    {
      "bufferView": 0,
      "byteOffset": 18120000,
      "componentType": 5126,
      "count": 10000,
      "max": [
        -0.11108788847923279,
        -284.9733581542969,
        -7.9039998054504395
      ],
      "min": [
        -1127.68603515625,
        -853.5323486328125,
        -1134.98095703125
      ],
      "type": "VEC3"
    },
    {
      "bufferView": 0,
      "byteOffset": 18240000,
      "componentType": 5126,
      "count": 10000,
      "max": [
        -4.299088001251221,
        -285.787353515625,
        -1.7330000400543213
      ],
      "min": [
        -1122.9310302734375,
        -860.9503784179688,
        -1129.050048828125
      ],
      "type": "VEC3"
    },
    {
      "bufferView": 0,
      "byteOffset": 18360000,
      "componentType": 5126,
      "count": 10000,
      "max": [
        -8.325087547302246,
        -287.3453674316406,
        -4.3429999351501465
      ],
      "min": [
        -1124.2611083984375,
        -859.5933837890625,
        -1079.886962890625
      ],
      "type": "VEC3"
    },
    {
      "bufferView": 0,
      "byteOffset": 18480000,
      "componentType": 5126,
      "count": 10000,
      "max": [
        -10.072088241577148,
        -289.0793762207031,
        -25.535999298095703
      ],
      "min": [
        -1132.1390380859375,
        -846.67236328125,
        -1123.31396484375
      ],
      "type": "VEC3"
    },
    {
      "bufferView": 0,
      "byteOffset": 18600000,
      "componentType": 5126,
      "count": 10000,
      "max": [
        -2.325087785720825,
        -288.56536865234375,
        -1.9390000104904175
      ],
      "min": [
        -1085.445068359375,
        -863.474365234375,
        -1101.823974609375
      ],
      "type": "VEC3"
    },
    {
      "bufferView": 0,
      "byteOffset": 18720000,
      "componentType": 5126,
      "count": 4319,
      "max": [
        -46.5010871887207,
        -290.9703674316406,
        -33.768001556396484
      ],
      "min": [
        -1121.0450439453125,
        -827.5903930664063,
        -1132.9090576171875
      ],
      "type": "VEC3"
    }
  ],
  "asset": {
    "extras": {
      "author": "Thomas Flynn (https://sketchfab.com/nebulousflynn)",
      "license": "CC-BY-4.0 (http://creativecommons.org/licenses/by/4.0/)",
      "source": "https://sketchfab.com/3d-models/projecteternal-christchurch-castle-20d8794970bb48e5a7f7091248bf9a87",
      "title": "#ProjectETERNAL - Christchurch Castle"
    },
    "generator": "Sketchfab-17.15.0",
    "version": "2.0"
  },
  "bufferViews": [
    {
      "buffer": 0,
      "byteLength": 18771828,
      "byteStride": 12,
      "name": "floatBufferViews",
      "target": 34962
    }
  ],
  "buffers": [
    {
      "byteLength": 18771828,
      "uri": "scene.bin"
    }
  ],
  "extensionsUsed": [
    "KHR_materials_unlit"
  ],
  "materials": [
    {
      "alphaMode": "BLEND",
      "doubleSided": true,
      "extensions": {
        "KHR_materials_unlit": {}
      },
      "name": "Scene_-_Root",
      "pbrMetallicRoughness": {
        "baseColorFactor": [
          1.0,
          1.0,
          1.0,
          0.1
        ],
        "metallicFactor": 0.0
      }
    }
  ],
  "meshes": [
    {
      "name": "Object_0",
      "primitives": [
        {
          "attributes": {
            "POSITION": 0
          },
          "material": 0,
          "mode": 0
        }
      ]
    },
    {
      "name": "Object_1",
      "primitives": [
        {
          "attributes": {
            "POSITION": 1
          },
          "material": 0,
          "mode": 0
        }
      ]
    },
    {
      "name": "Object_2",
      "primitives": [
        {
          "attributes": {
            "POSITION": 2
          },
          "material": 0,
          "mode": 0
        }
      ]
    },
    {
      "name": "Object_3",
      "primitives": [
        {
          "attributes": {
            "POSITION": 3
          },
          "material": 0,
          "mode": 0
        }
      ]
    },
    {
      "name": "Object_4",
      "primitives": [
        {
          "attributes": {
            "POSITION": 4
          },
          "material": 0,
          "mode": 0
        }
      ]
    },
    {
      "name": "Object_5",
      "primitives": [
        {
          "attributes": {
            "POSITION": 5
          },
          "material": 0,
          "mode": 0
        }
      ]
    },
    {
      "name": "Object_6",
      "primitives": [
        {
          "attributes": {
            "POSITION": 6
          },
          "material": 0,
          "mode": 0
        }
      ]
    },
    {
      "name": "Object_7",
      "primitives": [
        {
          "attributes": {
            "POSITION": 7
          },
          "material": 0,
          "mode": 0
        }
      ]
    },
    {
      "name": "Object_8",
      "primitives": [
        {
          "attributes": {
            "POSITION": 8
          },
          "material": 0,
          "mode": 0
        }
      ]
    },
    {
      "name": "Object_9",
      "primitives": [
        {
          "attributes": {
            "POSITION": 9
          },
          "material": 0,
          "mode": 0
        }
      ]
    },
    {
      "name": "Object_10",
      "primitives": [
        {
          "attributes": {
            "POSITION": 10
          },
          "material": 0,
          "mode": 0
        }
      ]
    },
    {
      "name": "Object_11",
      "primitives": [
        {
          "attributes": {
            "POSITION": 11
          },
          "material": 0,
          "mode": 0
        }
      ]
    },
    {
      "name": "Object_12",
      "primitives": [
        {
          "attributes": {
            "POSITION": 12
          },
          "material": 0,
          "mode": 0
        }
      ]
    },
    {
      "name": "Object_13",
      "primitives": [
        {
          "attributes": {
            "POSITION": 13
          },
          "material": 0,
          "mode": 0
        }
      ]
    },
    {
      "name": "Object_14",
      "primitives": [
        {
          "attributes": {
            "POSITION": 14
          },
          "material": 0,
          "mode": 0
        }
      ]
    },
    {
      "name": "Object_15",
      "primitives": [
        {
          "attributes": {
            "POSITION": 15
          },
          "material": 0,
          "mode": 0
        }
      ]
    },
    {
      "name": "Object_16",
      "primitives": [
        {
          "attributes": {
            "POSITION": 16
          },
          "material": 0,
          "mode": 0
        }
      ]
    },
    {
      "name": "Object_17",
      "primitives": [
        {
          "attributes": {
            "POSITION": 17
          },
          "material": 0,
          "mode": 0
        }
      ]
    },
    {
      "name": "Object_18",
      "primitives": [
        {
          "attributes": {
            "POSITION": 18
          },
          "material": 0,
          "mode": 0
        }
      ]
    },
    {
      "name": "Object_19",
      "primitives": [
        {
          "attributes": {
            "POSITION": 19
          },
          "material": 0,
          "mode": 0
        }
      ]
    },
    {
      "name": "Object_20",
      "primitives": [
        {
          "attributes": {
            "POSITION": 20
          },
          "material": 0,
          "mode": 0
        }
      ]
    },
    {
      "name": "Object_21",
      "primitives": [
        {
          "attributes": {
            "POSITION": 21
          },
          "material": 0,
          "mode": 0
        }
      ]
    },
    {
      "name": "Object_22",
      "primitives": [
        {
          "attributes": {
            "POSITION": 22
          },
          "material": 0,
          "mode": 0
        }
      ]
    },
    {
      "name": "Object_23",
      "primitives": [
        {
          "attributes": {
            "POSITION": 23
          },
          "material": 0,
          "mode": 0
        }
      ]
    },
    {
      "name": "Object_24",
      "primitives": [
        {
          "attributes": {
            "POSITION": 24
          },
          "material": 0,
          "mode": 0
        }
      ]
    },
    {
      "name": "Object_25",
      "primitives": [
        {
          "attributes": {
            "POSITION": 25
          },
          "material": 0,
          "mode": 0
        }
      ]
    },
    {
      "name": "Object_26",
      "primitives": [
        {
          "attributes": {
            "POSITION": 26
          },
          "material": 0,
          "mode": 0
        }
      ]
    },
    {
      "name": "Object_27",
      "primitives": [
        {
          "attributes": {
            "POSITION": 27
          },
          "material": 0,
          "mode": 0
        }
      ]
    },
    {
      "name": "Object_28",
      "primitives": [
        {
          "attributes": {
            "POSITION": 28
          },
          "material": 0,
          "mode": 0
        }
      ]
    },
    {
      "name": "Object_29",
      "primitives": [
        {
          "attributes": {
            "POSITION": 29
          },
          "material": 0,
          "mode": 0
        }
      ]
    },
    {
      "name": "Object_30",
      "primitives": [
        {
          "attributes": {
            "POSITION": 30
          },
          "material": 0,
          "mode": 0
        }
      ]
    },
    {
      "name": "Object_31",
      "primitives": [
        {
          "attributes": {
            "POSITION": 31
          },
          "material": 0,
          "mode": 0
        }
      ]
    },
    {
      "name": "Object_32",
      "primitives": [
        {
          "attributes": {
            "POSITION": 32
          },
          "material": 0,
          "mode": 0
        }
      ]
    },
    {
      "name": "Object_33",
      "primitives": [
        {
          "attributes": {
            "POSITION": 33
          },
          "material": 0,
          "mode": 0
        }
      ]
    },
    {
      "name": "Object_34",
      "primitives": [
        {
          "attributes": {
            "POSITION": 34
          },
          "material": 0,
          "mode": 0
        }
      ]
    },
    {
      "name": "Object_35",
      "primitives": [
        {
          "attributes": {
            "POSITION": 35
          },
          "material": 0,
          "mode": 0
        }
      ]
    },
    {
      "name": "Object_36",
      "primitives": [
        {
          "attributes": {
            "POSITION": 36
          },
          "material": 0,
          "mode": 0
        }
      ]
    },
    {
      "name": "Object_37",
      "primitives": [
        {
          "attributes": {
            "POSITION": 37
          },
          "material": 0,
          "mode": 0
        }
      ]
    },
    {
      "name": "Object_38",
      "primitives": [
        {
          "attributes": {
            "POSITION": 38
          },
          "material": 0,
          "mode": 0
        }
      ]
    },
    {
      "name": "Object_39",
      "primitives": [
        {
          "attributes": {
            "POSITION": 39
          },
          "material": 0,
          "mode": 0
        }
      ]
    },
    {
      "name": "Object_40",
      "primitives": [
        {
          "attributes": {
            "POSITION": 40
          },
          "material": 0,
          "mode": 0
        }
      ]
    },
    {
      "name": "Object_41",
      "primitives": [
        {
          "attributes": {
            "POSITION": 41
          },
          "material": 0,
          "mode": 0
        }
      ]
    },
    {
      "name": "Object_42",
      "primitives": [
        {
          "attributes": {
            "POSITION": 42
          },
          "material": 0,
          "mode": 0
        }
      ]
    },
    {
      "name": "Object_43",
      "primitives": [
        {
          "attributes": {
            "POSITION": 43
          },
          "material": 0,
          "mode": 0
        }
      ]
    },
    {
      "name": "Object_44",
      "primitives": [
        {
          "attributes": {
            "POSITION": 44
          },
          "material": 0,
          "mode": 0
        }
      ]
    },
    {
      "name": "Object_45",
      "primitives": [
        {
          "attributes": {
            "POSITION": 45
          },
          "material": 0,
          "mode": 0
        }
      ]
    },
    {
      "name": "Object_46",
      "primitives": [
        {
          "attributes": {
            "POSITION": 46
          },
          "material": 0,
          "mode": 0
        }
      ]
    },
    {
      "name": "Object_47",
      "primitives": [
        {
          "attributes": {
            "POSITION": 47
          },
          "material": 0,
          "mode": 0
        }
      ]
    },
    {
      "name": "Object_48",
      "primitives": [
        {
          "attributes": {
            "POSITION": 48
          },
          "material": 0,
          "mode": 0
        }
      ]
    },
    {
      "name": "Object_49",
      "primitives": [
        {
          "attributes": {
            "POSITION": 49
          },
          "material": 0,
          "mode": 0
        }
      ]
    },
    {
      "name": "Object_50",
      "primitives": [
        {
          "attributes": {
            "POSITION": 50
          },
          "material": 0,
          "mode": 0
        }
      ]
    },
    {
      "name": "Object_51",
      "primitives": [
        {
          "attributes": {
            "POSITION": 51
          },
          "material": 0,
          "mode": 0
        }
      ]
    },
    {
      "name": "Object_52",
      "primitives": [
        {
          "attributes": {
            "POSITION": 52
          },
          "material": 0,
          "mode": 0
        }
      ]
    },
    {
      "name": "Object_53",
      "primitives": [
        {
          "attributes": {
            "POSITION": 53
          },
          "material": 0,
          "mode": 0
        }
      ]
    },
    {
      "name": "Object_54",
      "primitives": [
        {
          "attributes": {
            "POSITION": 54
          },
          "material": 0,
          "mode": 0
        }
      ]
    },
    {
      "name": "Object_55",
      "primitives": [
        {
          "attributes": {
            "POSITION": 55
          },
          "material": 0,
          "mode": 0
        }
      ]
    },
    {
      "name": "Object_56",
      "primitives": [
        {
          "attributes": {
            "POSITION": 56
          },
          "material": 0,
          "mode": 0
        }
      ]
    },
    {
      "name": "Object_57",
      "primitives": [
        {
          "attributes": {
            "POSITION": 57
          },
          "material": 0,
          "mode": 0
        }
      ]
    },
    {
      "name": "Object_58",
      "primitives": [
        {
          "attributes": {
            "POSITION": 58
          },
          "material": 0,
          "mode": 0
        }
      ]
    },
    {
      "name": "Object_59",
      "primitives": [
        {
          "attributes": {
            "POSITION": 59
          },
          "material": 0,
          "mode": 0
        }
      ]
    },
    {
      "name": "Object_60",
      "primitives": [
        {
          "attributes": {
            "POSITION": 60
          },
          "material": 0,
          "mode": 0
        }
      ]
    },
    {
      "name": "Object_61",
      "primitives": [
        {
          "attributes": {
            "POSITION": 61
          },
          "material": 0,
          "mode": 0
        }
      ]
    },
    {
      "name": "Object_62",
      "primitives": [
        {
          "attributes": {
            "POSITION": 62
          },
          "material": 0,
          "mode": 0
        }
      ]
    },
    {
      "name": "Object_63",
      "primitives": [
        {
          "attributes": {
            "POSITION": 63
          },
          "material": 0,
          "mode": 0
        }
      ]
    },
    {
      "name": "Object_64",
      "primitives": [
        {
          "attributes": {
            "POSITION": 64
          },
          "material": 0,
          "mode": 0
        }
      ]
    },
    {
      "name": "Object_65",
      "primitives": [
        {
          "attributes": {
            "POSITION": 65
          },
          "material": 0,
          "mode": 0
        }
      ]
    },
    {
      "name": "Object_66",
      "primitives": [
        {
          "attributes": {
            "POSITION": 66
          },
          "material": 0,
          "mode": 0
        }
      ]
    },
    {
      "name": "Object_67",
      "primitives": [
        {
          "attributes": {
            "POSITION": 67
          },
          "material": 0,
          "mode": 0
        }
      ]
    },
    {
      "name": "Object_68",
      "primitives": [
        {
          "attributes": {
            "POSITION": 68
          },
          "material": 0,
          "mode": 0
        }
      ]
    },
    {
      "name": "Object_69",
      "primitives": [
        {
          "attributes": {
            "POSITION": 69
          },
          "material": 0,
          "mode": 0
        }
      ]
    },
    {
      "name": "Object_70",
      "primitives": [
        {
          "attributes": {
            "POSITION": 70
          },
          "material": 0,
          "mode": 0
        }
      ]
    },
    {
      "name": "Object_71",
      "primitives": [
        {
          "attributes": {
            "POSITION": 71
          },
          "material": 0,
          "mode": 0
        }
      ]
    },
    {
      "name": "Object_72",
      "primitives": [
        {
          "attributes": {
            "POSITION": 72
          },
          "material": 0,
          "mode": 0
        }
      ]
    },
    {
      "name": "Object_73",
      "primitives": [
        {
          "attributes": {
            "POSITION": 73
          },
          "material": 0,
          "mode": 0
        }
      ]
    },
    {
      "name": "Object_74",
      "primitives": [
        {
          "attributes": {
            "POSITION": 74
          },
          "material": 0,
          "mode": 0
        }
      ]
    },
    {
      "name": "Object_75",
      "primitives": [
        {
          "attributes": {
            "POSITION": 75
          },
          "material": 0,
          "mode": 0
        }
      ]
    },
    {
      "name": "Object_76",
      "primitives": [
        {
          "attributes": {
            "POSITION": 76
          },
          "material": 0,
          "mode": 0
        }
      ]
    },
    {
      "name": "Object_77",
      "primitives": [
        {
          "attributes": {
            "POSITION": 77
          },
          "material": 0,
          "mode": 0
        }
      ]
    },
    {
      "name": "Object_78",
      "primitives": [
        {
          "attributes": {
            "POSITION": 78
          },
          "material": 0,
          "mode": 0
        }
      ]
    },
    {
      "name": "Object_79",
      "primitives": [
        {
          "attributes": {
            "POSITION": 79
          },
          "material": 0,
          "mode": 0
        }
      ]
    },
    {
      "name": "Object_80",
      "primitives": [
        {
          "attributes": {
            "POSITION": 80
          },
          "material": 0,
          "mode": 0
        }
      ]
    },
    {
      "name": "Object_81",
      "primitives": [
        {
          "attributes": {
            "POSITION": 81
          },
          "material": 0,
          "mode": 0
        }
      ]
    },
    {
      "name": "Object_82",
      "primitives": [
        {
          "attributes": {
            "POSITION": 82
          },
          "material": 0,
          "mode": 0
        }
      ]
    },
    {
      "name": "Object_83",
      "primitives": [
        {
          "attributes": {
            "POSITION": 83
          },
          "material": 0,
          "mode": 0
        }
      ]
    },
    {
      "name": "Object_84",
      "primitives": [
        {
          "attributes": {
            "POSITION": 84
          },
          "material": 0,
          "mode": 0
        }
      ]
    },
    {
      "name": "Object_85",
      "primitives": [
        {
          "attributes": {
            "POSITION": 85
          },
          "material": 0,
          "mode": 0
        }
      ]
    },
    {
      "name": "Object_86",
      "primitives": [
        {
          "attributes": {
            "POSITION": 86
          },
          "material": 0,
          "mode": 0
        }
      ]
    },
    {
      "name": "Object_87",
      "primitives": [
        {
          "attributes": {
            "POSITION": 87
          },
          "material": 0,
          "mode": 0
        }
      ]
    },
    {
      "name": "Object_88",
      "primitives": [
        {
          "attributes": {
            "POSITION": 88
          },
          "material": 0,
          "mode": 0
        }
      ]
    },
    {
      "name": "Object_89",
      "primitives": [
        {
          "attributes": {
            "POSITION": 89
          },
          "material": 0,
          "mode": 0
        }
      ]
    },
    {
      "name": "Object_90",
      "primitives": [
        {
          "attributes": {
            "POSITION": 90
          },
          "material": 0,
          "mode": 0
        }
      ]
    },
    {
      "name": "Object_91",
      "primitives": [
        {
          "attributes": {
            "POSITION": 91
          },
          "material": 0,
          "mode": 0
        }
      ]
    },
    {
      "name": "Object_92",
      "primitives": [
        {
          "attributes": {
            "POSITION": 92
          },
          "material": 0,
          "mode": 0
        }
      ]
    },
    {
      "name": "Object_93",
      "primitives": [
        {
          "attributes": {
            "POSITION": 93
          },
          "material": 0,
          "mode": 0
        }
      ]
    },
    {
      "name": "Object_94",
      "primitives": [
        {
          "attributes": {
            "POSITION": 94
          },
          "material": 0,
          "mode": 0
        }
      ]
    },
    {
      "name": "Object_95",
      "primitives": [
        {
          "attributes": {
            "POSITION": 95
          },
          "material": 0,
          "mode": 0
        }
      ]
    },
    {
      "name": "Object_96",
      "primitives": [
        {
          "attributes": {
            "POSITION": 96
          },
          "material": 0,
          "mode": 0
        }
      ]
    },
    {
      "name": "Object_97",
      "primitives": [
        {
          "attributes": {
            "POSITION": 97
          },
          "material": 0,
          "mode": 0
        }
      ]
    },
    {
      "name": "Object_98",
      "primitives": [
        {
          "attributes": {
            "POSITION": 98
          },
          "material": 0,
          "mode": 0
        }
      ]
    },
    {
      "name": "Object_99",
      "primitives": [
        {
          "attributes": {
            "POSITION": 99
          },
          "material": 0,
          "mode": 0
        }
      ]
    },
    {
      "name": "Object_100",
      "primitives": [
        {
          "attributes": {
            "POSITION": 100
          },
          "material": 0,
          "mode": 0
        }
      ]
    },
    {
      "name": "Object_101",
      "primitives": [
        {
          "attributes": {
            "POSITION": 101
          },
          "material": 0,
          "mode": 0
        }
      ]
    },
    {
      "name": "Object_102",
      "primitives": [
        {
          "attributes": {
            "POSITION": 102
          },
          "material": 0,
          "mode": 0
        }
      ]
    },
    {
      "name": "Object_103",
      "primitives": [
        {
          "attributes": {
            "POSITION": 103
          },
          "material": 0,
          "mode": 0
        }
      ]
    },
    {
      "name": "Object_104",
      "primitives": [
        {
          "attributes": {
            "POSITION": 104
          },
          "material": 0,
          "mode": 0
        }
      ]
    },
    {
      "name": "Object_105",
      "primitives": [
        {
          "attributes": {
            "POSITION": 105
          },
          "material": 0,
          "mode": 0
        }
      ]
    },
    {
      "name": "Object_106",
      "primitives": [
        {
          "attributes": {
            "POSITION": 106
          },
          "material": 0,
          "mode": 0
        }
      ]
    },
    {
      "name": "Object_107",
      "primitives": [
        {
          "attributes": {
            "POSITION": 107
          },
          "material": 0,
          "mode": 0
        }
      ]
    },
    {
      "name": "Object_108",
      "primitives": [
        {
          "attributes": {
            "POSITION": 108
          },
          "material": 0,
          "mode": 0
        }
      ]
    },
    {
      "name": "Object_109",
      "primitives": [
        {
          "attributes": {
            "POSITION": 109
          },
          "material": 0,
          "mode": 0
        }
      ]
    },
    {
      "name": "Object_110",
      "primitives": [
        {
          "attributes": {
            "POSITION": 110
          },
          "material": 0,
          "mode": 0
        }
      ]
    },
    {
      "name": "Object_111",
      "primitives": [
        {
          "attributes": {
            "POSITION": 111
          },
          "material": 0,
          "mode": 0
        }
      ]
    },
    {
      "name": "Object_112",
      "primitives": [
        {
          "attributes": {
            "POSITION": 112
          },
          "material": 0,
          "mode": 0
        }
      ]
    },
    {
      "name": "Object_113",
      "primitives": [
        {
          "attributes": {
            "POSITION": 113
          },
          "material": 0,
          "mode": 0
        }
      ]
    },
    {
      "name": "Object_114",
      "primitives": [
        {
          "attributes": {
            "POSITION": 114
          },
          "material": 0,
          "mode": 0
        }
      ]
    },
    {
      "name": "Object_115",
      "primitives": [
        {
          "attributes": {
            "POSITION": 115
          },
          "material": 0,
          "mode": 0
        }
      ]
    },
    {
      "name": "Object_116",
      "primitives": [
        {
          "attributes": {
            "POSITION": 116
          },
          "material": 0,
          "mode": 0
        }
      ]
    },
    {
      "name": "Object_117",
      "primitives": [
        {
          "attributes": {
            "POSITION": 117
          },
          "material": 0,
          "mode": 0
        }
      ]
    },
    {
      "name": "Object_118",
      "primitives": [
        {
          "attributes": {
            "POSITION": 118
          },
          "material": 0,
          "mode": 0
        }
      ]
    },
    {
      "name": "Object_119",
      "primitives": [
        {
          "attributes": {
            "POSITION": 119
          },
          "material": 0,
          "mode": 0
        }
      ]
    },
    {
      "name": "Object_120",
      "primitives": [
        {
          "attributes": {
            "POSITION": 120
          },
          "material": 0,
          "mode": 0
        }
      ]
    },
    {
      "name": "Object_121",
      "primitives": [
        {
          "attributes": {
            "POSITION": 121
          },
          "material": 0,
          "mode": 0
        }
      ]
    },
    {
      "name": "Object_122",
      "primitives": [
        {
          "attributes": {
            "POSITION": 122
          },
          "material": 0,
          "mode": 0
        }
      ]
    },
    {
      "name": "Object_123",
      "primitives": [
        {
          "attributes": {
            "POSITION": 123
          },
          "material": 0,
          "mode": 0
        }
      ]
    },
    {
      "name": "Object_124",
      "primitives": [
        {
          "attributes": {
            "POSITION": 124
          },
          "material": 0,
          "mode": 0
        }
      ]
    },
    {
      "name": "Object_125",
      "primitives": [
        {
          "attributes": {
            "POSITION": 125
          },
          "material": 0,
          "mode": 0
        }
      ]
    },
    {
      "name": "Object_126",
      "primitives": [
        {
          "attributes": {
            "POSITION": 126
          },
          "material": 0,
          "mode": 0
        }
      ]
    },
    {
      "name": "Object_127",
      "primitives": [
        {
          "attributes": {
            "POSITION": 127
          },
          "material": 0,
          "mode": 0
        }
      ]
    },
    {
      "name": "Object_128",
      "primitives": [
        {
          "attributes": {
            "POSITION": 128
          },
          "material": 0,
          "mode": 0
        }
      ]
    },
    {
      "name": "Object_129",
      "primitives": [
        {
          "attributes": {
            "POSITION": 129
          },
          "material": 0,
          "mode": 0
        }
      ]
    },
    {
      "name": "Object_130",
      "primitives": [
        {
          "attributes": {
            "POSITION": 130
          },
          "material": 0,
          "mode": 0
        }
      ]
    },
    {
      "name": "Object_131",
      "primitives": [
        {
          "attributes": {
            "POSITION": 131
          },
          "material": 0,
          "mode": 0
        }
      ]
    },
    {
      "name": "Object_132",
      "primitives": [
        {
          "attributes": {
            "POSITION": 132
          },
          "material": 0,
          "mode": 0
        }
      ]
    },
    {
      "name": "Object_133",
      "primitives": [
        {
          "attributes": {
            "POSITION": 133
          },
          "material": 0,
          "mode": 0
        }
      ]
    },
    {
      "name": "Object_134",
      "primitives": [
        {
          "attributes": {
            "POSITION": 134
          },
          "material": 0,
          "mode": 0
        }
      ]
    },
    {
      "name": "Object_135",
      "primitives": [
        {
          "attributes": {
            "POSITION": 135
          },
          "material": 0,
          "mode": 0
        }
      ]
    },
    {
      "name": "Object_136",
      "primitives": [
        {
          "attributes": {
            "POSITION": 136
          },
          "material": 0,
          "mode": 0
        }
      ]
    },
    {
      "name": "Object_137",
      "primitives": [
        {
          "attributes": {
            "POSITION": 137
          },
          "material": 0,
          "mode": 0
        }
      ]
    },
    {
      "name": "Object_138",
      "primitives": [
        {
          "attributes": {
            "POSITION": 138
          },
          "material": 0,
          "mode": 0
        }
      ]
    },
    {
      "name": "Object_139",
      "primitives": [
        {
          "attributes": {
            "POSITION": 139
          },
          "material": 0,
          "mode": 0
        }
      ]
    },
    {
      "name": "Object_140",
      "primitives": [
        {
          "attributes": {
            "POSITION": 140
          },
          "material": 0,
          "mode": 0
        }
      ]
    },
    {
      "name": "Object_141",
      "primitives": [
        {
          "attributes": {
            "POSITION": 141
          },
          "material": 0,
          "mode": 0
        }
      ]
    },
    {
      "name": "Object_142",
      "primitives": [
        {
          "attributes": {
            "POSITION": 142
          },
          "material": 0,
          "mode": 0
        }
      ]
    },
    {
      "name": "Object_143",
      "primitives": [
        {
          "attributes": {
            "POSITION": 143
          },
          "material": 0,
          "mode": 0
        }
      ]
    },
    {
      "name": "Object_144",
      "primitives": [
        {
          "attributes": {
            "POSITION": 144
          },
          "material": 0,
          "mode": 0
        }
      ]
    },
    {
      "name": "Object_145",
      "primitives": [
        {
          "attributes": {
            "POSITION": 145
          },
          "material": 0,
          "mode": 0
        }
      ]
    },
    {
      "name": "Object_146",
      "primitives": [
        {
          "attributes": {
            "POSITION": 146
          },
          "material": 0,
          "mode": 0
        }
      ]
    },
    {
      "name": "Object_147",
      "primitives": [
        {
          "attributes": {
            "POSITION": 147
          },
          "material": 0,
          "mode": 0
        }
      ]
    },
    {
      "name": "Object_148",
      "primitives": [
        {
          "attributes": {
            "POSITION": 148
          },
          "material": 0,
          "mode": 0
        }
      ]
    },
    {
      "name": "Object_149",
      "primitives": [
        {
          "attributes": {
            "POSITION": 149
          },
          "material": 0,
          "mode": 0
        }
      ]
    },
    {
      "name": "Object_150",
      "primitives": [
        {
          "attributes": {
            "POSITION": 150
          },
          "material": 0,
          "mode": 0
        }
      ]
    },
    {
      "name": "Object_151",
      "primitives": [
        {
          "attributes": {
            "POSITION": 151
          },
          "material": 0,
          "mode": 0
        }
      ]
    },
    {
      "name": "Object_152",
      "primitives": [
        {
          "attributes": {
            "POSITION": 152
          },
          "material": 0,
          "mode": 0
        }
      ]
    },
    {
      "name": "Object_153",
      "primitives": [
        {
          "attributes": {
            "POSITION": 153
          },
          "material": 0,
          "mode": 0
        }
      ]
    },
    {
      "name": "Object_154",
      "primitives": [
        {
          "attributes": {
            "POSITION": 154
          },
          "material": 0,
          "mode": 0
        }
      ]
    },
    {
      "name": "Object_155",
      "primitives": [
        {
          "attributes": {
            "POSITION": 155
          },
          "material": 0,
          "mode": 0
        }
      ]
    },
    {
      "name": "Object_156",
      "primitives": [
        {
          "attributes": {
            "POSITION": 156
          },
          "material": 0,
          "mode": 0
        }
      ]
    }
  ],
  "nodes": [
    {
      "children": [
        1
      ],
      "matrix": [
        0.9998188614845276,
        -0.019032711163163185,
        1.5536844895898945e-16,
        0.0,
        -0.019032711163163185,
        -0.9998188614845276,
        -3.2530174607848296e-16,
        0.0,
        1.6306400674181987e-16,
        3.222790957713162e-16,
        -1.0,
        0.0,
        0.0,
        0.0,
        0.0,
        1.0
      ],
      "name": "Sketchfab_model"
    },
    {
      "children": [
        2,
        3,
        4,
        5,
        6,
        7,
        8,
        9,
        10,
        11,
        12,
        13,
        14,
        15,
        16,
        17,
        18,
        19,
        20,
        21,
        22,
        23,
        24,
        25,
        26,
        27,
        28,
        29,
        30,
        31,
        32,
        33,
        34,
        35,
        36,
        37,
        38,
        39,
        40,
        41,
        42,
        43,
        44,
        45,
        46,
        47,
        48,
        49,
        50,
        51,
        52,
        53,
        54,
        55,
        56,
        57,
        58,
        59,
        60,
        61,
        62,
        63,
        64,
        65,
        66,
        67,
        68,
        69,
        70,
        71,
        72,
        73,
        74,
        75,
        76,
        77,
        78,
        79,
        80,
        81,
        82,
        83,
        84,
        85,
        86,
        87,
        88,
        89,
        90,
        91,
        92,
        93,
        94,
        95,
        96,
        97,
        98,
        99,
        100,
        101,
        102,
        103,
        104,
        105,
        106,
        107,
        108,
        109,
        110,
        111,
        112,
        113,
        114,
        115,
        116,
        117,
        118,
        119,
        120,
        121,
        122,
        123,
        124,
        125,
        126,
        127,
        128,
        129,
        130,
        131,
        132,
        133,
        134,
        135,
        136,
        137,
        138,
        139,
        140,
        141,
        142,
        143,
        144,
        145,
        146,
        147,
        148,
        149,
        150,
        151,
        152,
        153,
        154,
        155,
        156,
        157,
        158
      ],
      "matrix": [
        1.0,
        0.0,
        0.0,
        0.0,
        0.0,
        1.0,
        0.0,
        0.0,
        0.0,
        0.0,
        1.0,
        0.0,
        567.539,
        297.48,
        567.403,
        1.0
      ],
      "name": "ece6c018ec7d4f69898b5ec7f3029738.las.cleaner.materialmerger.gles"
    },
    {
      "mesh": 0,
      "name": "Object_2"
    },
    {
      "mesh": 1,
      "name": "Object_3"
    },
    {
      "mesh": 2,
      "name": "Object_4"
    },
    {
      "mesh": 3,
      "name": "Object_5"
    },
    {
      "mesh": 4,
      "name": "Object_6"
    },
    {
      "mesh": 5,
      "name": "Object_7"
    },
    {
      "mesh": 6,
      "name": "Object_8"
    },
    {
      "mesh": 7,
      "name": "Object_9"
    },
    {
      "mesh": 8,
      "name": "Object_10"
    },
    {
      "mesh": 9,
      "name": "Object_11"
    },
    {
      "mesh": 10,
      "name": "Object_12"
    },
    {
      "mesh": 11,
      "name": "Object_13"
    },
    {
      "mesh": 12,
      "name": "Object_14"
    },
    {
      "mesh": 13,
      "name": "Object_15"
    },
    {
      "mesh": 14,
      "name": "Object_16"
    },
    {
      "mesh": 15,
      "name": "Object_17"
    },
    {
      "mesh": 16,
      "name": "Object_18"
    },
    {
      "mesh": 17,
      "name": "Object_19"
    },
    {
      "mesh": 18,
      "name": "Object_20"
    },
    {
      "mesh": 19,
      "name": "Object_21"
    },
    {
      "mesh": 20,
      "name": "Object_22"
    },
    {
      "mesh": 21,
      "name": "Object_23"
    },
    {
      "mesh": 22,
      "name": "Object_24"
    },
    {
      "mesh": 23,
      "name": "Object_25"
    },
    {
      "mesh": 24,
      "name": "Object_26"
    },
    {
      "mesh": 25,
      "name": "Object_27"
    },
    {
      "mesh": 26,
      "name": "Object_28"
    },
    {
      "mesh": 27,
      "name": "Object_29"
    },
    {
      "mesh": 28,
      "name": "Object_30"
    },
    {
      "mesh": 29,
      "name": "Object_31"
    },
    {
      "mesh": 30,
      "name": "Object_32"
    },
    {
      "mesh": 31,
      "name": "Object_33"
    },
    {
      "mesh": 32,
      "name": "Object_34"
    },
    {
      "mesh": 33,
      "name": "Object_35"
    },
    {
      "mesh": 34,
      "name": "Object_36"
    },
    {
      "mesh": 35,
      "name": "Object_37"
    },
    {
      "mesh": 36,
      "name": "Object_38"
    },
    {
      "mesh": 37,
      "name": "Object_39"
    },
    {
      "mesh": 38,
      "name": "Object_40"
    },
    {
      "mesh": 39,
      "name": "Object_41"
    },
    {
      "mesh": 40,
      "name": "Object_42"
    },
    {
      "mesh": 41,
      "name": "Object_43"
    },
    {
      "mesh": 42,
      "name": "Object_44"
    },
    {
      "mesh": 43,
      "name": "Object_45"
    },
    {
      "mesh": 44,
      "name": "Object_46"
    },
    {
      "mesh": 45,
      "name": "Object_47"
    },
    {
      "mesh": 46,
      "name": "Object_48"
    },
    {
      "mesh": 47,
      "name": "Object_49"
    },
    {
      "mesh": 48,
      "name": "Object_50"
    },
    {
      "mesh": 49,
      "name": "Object_51"
    },
    {
      "mesh": 50,
      "name": "Object_52"
    },
    {
      "mesh": 51,
      "name": "Object_53"
    },
    {
      "mesh": 52,
      "name": "Object_54"
    },
    {
      "mesh": 53,
      "name": "Object_55"
    },
    {
      "mesh": 54,
      "name": "Object_56"
    },
    {
      "mesh": 55,
      "name": "Object_57"
    },
    {
      "mesh": 56,
      "name": "Object_58"
    },
    {
      "mesh": 57,
      "name": "Object_59"
    },
    {
      "mesh": 58,
      "name": "Object_60"
    },
    {
      "mesh": 59,
      "name": "Object_61"
    },
    {
      "mesh": 60,
      "name": "Object_62"
    },
    {
      "mesh": 61,
      "name": "Object_63"
    },
    {
      "mesh": 62,
      "name": "Object_64"
    },
    {
      "mesh": 63,
      "name": "Object_65"
    },
    {
      "mesh": 64,
      "name": "Object_66"
    },
    {
      "mesh": 65,
      "name": "Object_67"
    },
    {
      "mesh": 66,
      "name": "Object_68"
    },
    {
      "mesh": 67,
      "name": "Object_69"
    },
    {
      "mesh": 68,
      "name": "Object_70"
    },
    {
      "mesh": 69,
      "name": "Object_71"
    },
    {
      "mesh": 70,
      "name": "Object_72"
    },
    {
      "mesh": 71,
      "name": "Object_73"
    },
    {
      "mesh": 72,
      "name": "Object_74"
    },
    {
      "mesh": 73,
      "name": "Object_75"
    },
    {
      "mesh": 74,
      "name": "Object_76"
    },
    {
      "mesh": 75,
      "name": "Object_77"
    },
    {
      "mesh": 76,
      "name": "Object_78"
    },
    {
      "mesh": 77,
      "name": "Object_79"
    },
    {
      "mesh": 78,
      "name": "Object_80"
    },
    {
      "mesh": 79,
      "name": "Object_81"
    },
    {
      "mesh": 80,
      "name": "Object_82"
    },
    {
      "mesh": 81,
      "name": "Object_83"
    },
    {
      "mesh": 82,
      "name": "Object_84"
    },
    {
      "mesh": 83,
      "name": "Object_85"
    },
    {
      "mesh": 84,
      "name": "Object_86"
    },
    {
      "mesh": 85,
      "name": "Object_87"
    },
    {
      "mesh": 86,
      "name": "Object_88"
    },
    {
      "mesh": 87,
      "name": "Object_89"
    },
    {
      "mesh": 88,
      "name": "Object_90"
    },
    {
      "mesh": 89,
      "name": "Object_91"
    },
    {
      "mesh": 90,
      "name": "Object_92"
    },
    {
      "mesh": 91,
      "name": "Object_93"
    },
    {
      "mesh": 92,
      "name": "Object_94"
    },
    {
      "mesh": 93,
      "name": "Object_95"
    },
    {
      "mesh": 94,
      "name": "Object_96"
    },
    {
      "mesh": 95,
      "name": "Object_97"
    },
    {
      "mesh": 96,
      "name": "Object_98"
    },
    {
      "mesh": 97,
      "name": "Object_99"
    },
    {
      "mesh": 98,
      "name": "Object_100"
    },
    {
      "mesh": 99,
      "name": "Object_101"
    },
    {
      "mesh": 100,
      "name": "Object_102"
    },
    {
      "mesh": 101,
      "name": "Object_103"
    },
    {
      "mesh": 102,
      "name": "Object_104"
    },
    {
      "mesh": 103,
      "name": "Object_105"
    },
    {
      "mesh": 104,
      "name": "Object_106"
    },
    {
      "mesh": 105,
      "name": "Object_107"
    },
    {
      "mesh": 106,
      "name": "Object_108"
    },
    {
      "mesh": 107,
      "name": "Object_109"
    },
    {
      "mesh": 108,
      "name": "Object_110"
    },
    {
      "mesh": 109,
      "name": "Object_111"
    },
    {
      "mesh": 110,
      "name": "Object_112"
    },
    {
      "mesh": 111,
      "name": "Object_113"
    },
    {
      "mesh": 112,
      "name": "Object_114"
    },
    {
      "mesh": 113,
      "name": "Object_115"
    },
    {
      "mesh": 114,
      "name": "Object_116"
    },
    {
      "mesh": 115,
      "name": "Object_117"
    },
    {
      "mesh": 116,
      "name": "Object_118"
    },
    {
      "mesh": 117,
      "name": "Object_119"
    },
    {
      "mesh": 118,
      "name": "Object_120"
    },
    {
      "mesh": 119,
      "name": "Object_121"
    },
    {
      "mesh": 120,
      "name": "Object_122"
    },
    {
      "mesh": 121,
      "name": "Object_123"
    },
    {
      "mesh": 122,
      "name": "Object_124"
    },
    {
      "mesh": 123,
      "name": "Object_125"
    },
    {
      "mesh": 124,
      "name": "Object_126"
    },
    {
      "mesh": 125,
      "name": "Object_127"
    },
    {
      "mesh": 126,
      "name": "Object_128"
    },
    {
      "mesh": 127,
      "name": "Object_129"
    },
    {
      "mesh": 128,
      "name": "Object_130"
    },
    {
      "mesh": 129,
      "name": "Object_131"
    },
    {
      "mesh": 130,
      "name": "Object_132"
    },
    {
      "mesh": 131,
      "name": "Object_133"
    },
    {
      "mesh": 132,
      "name": "Object_134"
    },
    {
      "mesh": 133,
      "name": "Object_135"
    },
    {
      "mesh": 134,
      "name": "Object_136"
    },
    {
      "mesh": 135,
      "name": "Object_137"
    },
    {
      "mesh": 136,
      "name": "Object_138"
    },
    {
      "mesh": 137,
      "name": "Object_139"
    },
    {
      "mesh": 138,
      "name": "Object_140"
    },
    {
      "mesh": 139,
      "name": "Object_141"
    },
    {
      "mesh": 140,
      "name": "Object_142"
    },
    {
      "mesh": 141,
      "name": "Object_143"
    },
    {
      "mesh": 142,
      "name": "Object_144"
    },
    {
      "mesh": 143,
      "name": "Object_145"
    },
    {
      "mesh": 144,
      "name": "Object_146"
    },
    {
      "mesh": 145,
      "name": "Object_147"
    },
    {
      "mesh": 146,
      "name": "Object_148"
    },
    {
      "mesh": 147,
      "name": "Object_149"
    },
    {
      "mesh": 148,
      "name": "Object_150"
    },
    {
      "mesh": 149,
      "name": "Object_151"
    },
    {
      "mesh": 150,
      "name": "Object_152"
    },
    {
      "mesh": 151,
      "name": "Object_153"
    },
    {
      "mesh": 152,
      "name": "Object_154"
    },
    {
      "mesh": 153,
      "name": "Object_155"
    },
    {
      "mesh": 154,
      "name": "Object_156"
    },
    {
      "mesh": 155,
      "name": "Object_157"
    },
    {
      "mesh": 156,
      "name": "Object_158"
    }
  ],
  "scene": 0,
  "scenes": [
    {
      "name": "Sketchfab_Scene",
      "nodes": [
        0
      ]
    }
  ]
}
